HIERARCHY
ROOT Hips
{
	OFFSET 0.000000 0.000000 0.000000
	CHANNELS 6 Xposition Yposition Zposition Zrotation Yrotation Xrotation 
	JOINT LHipJoint
	{
		OFFSET 0.000000 0.000000 0.000000
		CHANNELS 3 Zrotation Yrotation Xrotation
		JOINT LeftUpLeg
		{
			OFFSET 1.363060 -1.794630 0.839290
			CHANNELS 3 Zrotation Yrotation Xrotation
			JOINT LeftLeg
			{
				OFFSET 2.448110 -6.726130 0.000000
				CHANNELS 3 Zrotation Yrotation Xrotation
				JOINT LeftFoot
				{
					OFFSET 2.562200 -7.039590 0.000000
					CHANNELS 3 Zrotation Yrotation Xrotation
					JOINT LeftToeBase
					{
						OFFSET 0.157640 -0.433110 2.322550
						CHANNELS 3 Zrotation Yrotation Xrotation
						End Site
						{
							OFFSET 0.000000 0.000000 0.000000
						}
					}
				}
			}
		}
	}
	JOINT RHipJoint
	{
		OFFSET 0.000000 0.000000 0.000000
		CHANNELS 3 Zrotation Yrotation Xrotation
		JOINT RightUpLeg
		{
			OFFSET -1.305520 -1.794630 0.839290
			CHANNELS 3 Zrotation Yrotation Xrotation
			JOINT RightLeg
			{
				OFFSET -2.542530 -6.985550 0.000000
				CHANNELS 3 Zrotation Yrotation Xrotation
				JOINT RightFoot
				{
					OFFSET -2.568260 -7.056230 0.000000
					CHANNELS 3 Zrotation Yrotation Xrotation
					JOINT RightToeBase
					{
						OFFSET -0.164730 -0.452590 2.363150
						CHANNELS 3 Zrotation Yrotation Xrotation
						End Site
						{
							OFFSET 0.000000 0.000000 0.000000
						}
					}
				}
			}
		}
	}
	JOINT LowerBack
	{
		OFFSET 0.000000 0.000000 0.000000
		CHANNELS 3 Zrotation Yrotation Xrotation
		JOINT Spine
		{
			OFFSET 0.028270 2.035590 -0.193380
			CHANNELS 3 Zrotation Yrotation Xrotation
			JOINT Spine1
			{
				OFFSET 0.056720 2.048850 -0.042750
				CHANNELS 3 Zrotation Yrotation Xrotation
				JOINT Neck
				{
					OFFSET 0.000000 0.000000 0.000000
					CHANNELS 3 Zrotation Yrotation Xrotation
					JOINT Neck1
					{
						OFFSET -0.054170 1.746240 0.172020
						CHANNELS 3 Zrotation Yrotation Xrotation
						JOINT Head
						{
							OFFSET 0.104070 1.761360 -0.123970
							CHANNELS 3 Zrotation Yrotation Xrotation
							End Site
							{
								OFFSET 0.000000 0.000000 0.000000
							}
						}
					}
				}
				JOINT LeftShoulder
				{
					OFFSET 0.000000 0.000000 0.000000
					CHANNELS 3 Zrotation Yrotation Xrotation
					JOINT LeftArm
					{
						OFFSET 3.362410 1.200890 -0.311210
						CHANNELS 3 Zrotation Yrotation Xrotation
						JOINT LeftForeArm
						{
							OFFSET 4.983000 -0.000000 -0.000000
							CHANNELS 3 Zrotation Yrotation Xrotation
							JOINT LeftHand
							{
								OFFSET 3.483560 -0.000000 -0.000000
								CHANNELS 3 Zrotation Yrotation Xrotation
								JOINT LeftFingerBase
								{
									OFFSET 0.000000 0.000000 0.000000
									CHANNELS 3 Zrotation Yrotation Xrotation
									JOINT LeftHandIndex1
									{
										OFFSET 0.715260 -0.000000 -0.000000
										CHANNELS 3 Zrotation Yrotation Xrotation
										End Site
										{
											OFFSET 0.000000 0.000000 0.000000
										}
									}
								}
								JOINT LThumb
								{
									OFFSET 0.000000 0.000000 0.000000
									CHANNELS 3 Zrotation Yrotation Xrotation
									End Site
									{
										OFFSET 0.000000 0.000000 0.000000
									}
								}
							}
						}
					}
				}
				JOINT RightShoulder
				{
					OFFSET 0.000000 0.000000 0.000000
					CHANNELS 3 Zrotation Yrotation Xrotation
					JOINT RightArm
					{
						OFFSET -3.136600 1.374050 -0.404650
						CHANNELS 3 Zrotation Yrotation Xrotation
						JOINT RightForeArm
						{
							OFFSET -5.241900 -0.000000 -0.000000
							CHANNELS 3 Zrotation Yrotation Xrotation
							JOINT RightHand
							{
								OFFSET -3.444170 -0.000000 -0.000000
								CHANNELS 3 Zrotation Yrotation Xrotation
								JOINT RightFingerBase
								{
									OFFSET 0.000000 0.000000 0.000000
									CHANNELS 3 Zrotation Yrotation Xrotation
									JOINT RightHandIndex1
									{
										OFFSET -0.622530 -0.000000 -0.000000
										CHANNELS 3 Zrotation Yrotation Xrotation
										End Site
										{
											OFFSET 0.000000 0.000000 0.000000
										}
									}
								}
								JOINT RThumb
								{
									OFFSET 0.000000 0.000000 0.000000
									CHANNELS 3 Zrotation Yrotation Xrotation
									End Site
									{
										OFFSET 0.000000 0.000000 0.000000
									}
								}
							}
						}
					}
				}
			}
		}
	}
}
MOTION
Frames: 7
Frame Time: 0.008333
24.140315 16.945368 1.785687 16.873896 -88.549409 12.516698 -9.137034 -0.016243 3.945861 -3.673612 -13.148010 -36.555137 -1.103849 -0.594647 22.259930 4.179214 16.392094 -21.873374 -3.874700 0.000000 -32.813100 7.653476 0.383030 3.615822 5.592290 13.576456 -35.072340 1.789610 0.603880 22.697982 -4.141069 -9.854633 -26.252391 3.400600 0.000000 -50.068200 2.396719 -2.016502 -5.598912 -0.122046 -2.458261 -4.252381 -5.883491 -2.639963 -0.476887 10.639954 -9.466997 -12.152110 -2.613380 -0.130730 -1.464881 0.000000 0.000000 0.000000 1.511466 5.244113 2.962175 -80.370311 6.734039 10.293535 -1.538436 -43.615415 -0.030958 14.981021 -2.030000 -0.287525 -0.130792 0.142860 -0.000000 0.000000 0.000000 0.000000 0.000000 0.000000 0.000000 12.136905 -4.908369 2.799667 80.658420 5.068906 1.713708 2.152065 33.306713 -0.011905 -9.927192 10.418700 -0.938987 0.136417 -0.225169 0.000000 0.000000 0.000000 0.000000 0.000000 0.000000 0.000000 
24.125121 16.883138 1.785719 20.321276 -88.466396 9.729879 -8.976369 -0.074817 3.993803 -3.618860 -13.855840 -38.221699 -1.082643 -0.468808 24.497172 4.341916 16.642791 -23.204869 -4.340100 0.000000 -32.418800 7.722381 0.500579 3.706049 5.076468 14.174313 -37.086262 1.671499 0.329333 25.528532 -4.259017 -9.919039 -27.550975 3.692700 -0.000000 -49.121900 2.299066 -2.030593 -5.672818 -0.140957 -2.469361 -4.286074 -5.867209 -2.656048 -0.547795 10.663795 -9.354504 -12.202115 -2.619250 -0.129691 -1.494228 0.000000 0.000000 0.000000 1.614187 5.011199 3.025502 -80.601361 6.418504 10.011559 -1.502515 -43.459463 -0.033402 15.652577 -2.237680 -0.330036 -0.133325 0.147992 -0.000000 0.000000 0.000000 0.000000 0.000000 0.000000 0.000000 12.156849 -4.778462 2.851525 80.772963 5.121872 1.800860 2.101598 33.720694 -0.013007 -9.981071 10.459057 -0.947890 0.135229 -0.229715 0.000000 0.000000 0.000000 0.000000 0.000000 0.000000 0.000000 
24.109879 16.811019 1.784891 23.897288 -88.340774 6.807083 -8.824185 -0.135625 4.034303 -3.600154 -14.518327 -39.981520 -1.066696 -0.325713 26.909032 4.492857 16.815589 -24.597185 -4.819400 0.000000 -31.803399 7.800653 0.619911 3.787752 4.550594 14.680003 -39.148361 1.552129 0.045657 28.451073 -4.364067 -9.968430 -28.840039 3.978000 0.000000 -47.981700 2.183639 -2.055317 -5.739073 -0.163383 -2.489113 -4.317484 -5.850932 -2.680732 -0.615027 10.691678 -9.257408 -12.253161 -2.627607 -0.128805 -1.524290 0.000000 0.000000 0.000000 1.712250 4.770068 3.089224 -80.819555 6.037071 9.656550 -1.468939 -43.232328 -0.035944 16.320778 -2.461147 -0.377352 -0.135595 0.153250 -0.000000 0.000000 0.000000 0.000000 0.000000 0.000000 0.000000 12.200659 -4.672595 2.901392 80.875999 5.199904 1.899899 2.053231 34.124788 -0.013967 -9.968165 10.488822 -0.949594 0.133541 -0.234227 0.000000 0.000000 0.000000 0.000000 0.000000 0.000000 0.000000 
24.095020 16.728428 1.783562 27.403361 -88.173379 3.948072 -8.687348 -0.199222 4.072411 -3.612467 -15.140847 -41.833069 -1.051842 -0.164733 29.482367 4.633341 16.928149 -26.032073 -5.305201 -0.000000 -30.917400 7.883250 0.739901 3.861695 4.025344 15.089542 -41.253687 1.431238 -0.244033 31.453738 -4.461318 -10.024184 -30.118717 4.261300 -0.000001 -46.599299 2.052568 -2.087926 -5.804752 -0.189669 -2.515151 -4.350715 -5.836453 -2.711815 -0.688826 10.717816 -9.152961 -12.294136 -2.640680 -0.128457 -1.551645 0.000000 0.000000 0.000000 1.798477 4.484110 3.154957 -81.025438 5.628783 9.197067 -1.436981 -42.959514 -0.038510 16.947512 -2.696607 -0.428171 -0.137217 0.158624 -0.000000 0.000000 0.000000 0.000000 0.000000 0.000000 0.000000 12.264302 -4.563905 2.952421 80.970350 5.265939 1.969798 2.006335 34.541604 -0.014755 -9.872304 10.511968 -0.942800 0.131122 -0.238824 0.000000 0.000000 0.000000 0.000000 0.000000 0.000000 0.000000 
24.079650 16.634705 1.782129 30.649092 -87.969909 1.353685 -8.570219 -0.265273 4.113931 -3.645689 -15.730242 -43.782790 -1.033217 0.014382 32.203969 4.765561 17.002479 -27.489225 -5.791400 0.000001 -29.738800 7.966492 0.861079 3.930980 3.507706 15.409644 -43.407506 1.306881 -0.536900 34.532090 -4.557223 -10.111300 -31.389517 4.551100 -0.000000 -44.908699 1.910281 -2.125862 -5.879134 -0.218386 -2.545588 -4.383877 -5.821431 -2.747129 -0.753657 10.746071 -9.079956 -12.342547 -2.654114 -0.128021 -1.581238 0.000000 0.000000 0.000000 1.872202 4.208464 3.218853 -81.216043 5.138220 8.691282 -1.409093 -42.605532 -0.041029 17.509300 -2.940788 -0.481392 -0.138272 0.164081 -0.000000 0.000000 0.000000 0.000000 0.000000 0.000000 0.000000 12.344706 -4.493258 3.001086 81.046845 5.364949 2.075906 1.963939 34.942085 -0.015332 -9.717192 10.535665 -0.930302 0.128376 -0.243354 0.000000 0.000000 0.000000 0.000000 0.000000 0.000000 0.000000 
24.064196 16.529491 1.781037 33.467087 -87.737972 -0.806586 -8.474994 -0.333448 4.164444 -3.686284 -16.293837 -45.832668 -1.005377 0.211262 35.058923 4.892051 17.064455 -28.944354 -6.273500 -0.000000 -28.281200 8.048447 0.984146 3.999128 3.005677 15.648462 -45.612166 1.176968 -0.830667 37.678334 -4.656657 -10.251364 -32.647151 4.854800 -0.000000 -42.914000 1.765311 -2.164837 -5.972095 -0.248711 -2.577403 -4.422465 -5.809081 -2.783972 -0.822692 10.770949 -9.005083 -12.384055 -2.671674 -0.128073 -1.608686 0.000000 0.000000 0.000000 1.921295 3.900749 3.283186 -81.387678 4.614560 8.104293 -1.383265 -42.208836 -0.043460 17.982170 -3.181616 -0.533817 -0.138437 0.169583 -0.000000 0.000000 0.000000 0.000000 0.000000 0.000000 0.000000 12.441434 -4.422114 3.051243 81.105092 5.455069 2.159271 1.924801 35.349655 -0.015702 -9.491165 10.559879 -0.911006 0.125064 -0.247943 0.000000 0.000000 0.000000 0.000000 0.000000 0.000000 0.000000 
24.048065 16.412375 1.780692 35.766360 -87.486256 -2.430118 -8.401626 -0.403520 4.229168 -3.718758 -16.837779 -47.989653 -0.962872 0.424444 38.032645 5.015239 17.138669 -30.372289 -6.748300 0.000001 -26.599900 8.128609 1.109963 4.071643 2.522573 15.820750 -47.876982 1.038685 -1.123600 40.888117 -4.763532 -10.462210 -33.886694 5.180200 -0.000000 -40.623200 1.626503 -2.202165 -6.094434 -0.278464 -2.609230 -4.466310 -5.798949 -2.820909 -0.885760 10.795979 -8.949877 -12.429764 -2.691398 -0.128296 -1.637088 0.000000 0.000000 0.000000 1.940099 3.600528 3.345436 -81.532527 4.023380 7.483726 -1.360331 -41.752783 -0.045778 18.363291 -3.408364 -0.583046 -0.137849 0.175049 -0.000000 0.000000 0.000000 0.000000 0.000000 0.000000 0.000000 12.556032 -4.373445 3.100614 81.134767 5.568389 2.256994 1.890814 35.739146 -0.015865 -9.220279 10.588446 -0.887608 0.121530 -0.252469 0.000000 0.000000 0.000000 0.000000 0.000000 0.000000 0.000000 
